<svg fill="none" height="296" viewBox="0 0 1168 296" width="1168" xmlns="http://www.w3.org/2000/svg" xmlns:xlink="http://www.w3.org/1999/xlink"><linearGradient id="a" gradientUnits="userSpaceOnUse" x1="953.867" x2="898.038" y1=".794212" y2="385.221"><stop offset="0" stop-color="#4c9aff"/><stop offset="1" stop-color="#403294"/></linearGradient><mask id="b" height="296" maskUnits="userSpaceOnUse" width="1168" x="0" y="0"><rect fill="url(#a)" height="295" rx="8" width="1168" y=".794189"/></mask><g fill="#fff" mask="url(#b)" opacity=".2"><path d="m416.486 689.307c-73.55-42.404-128.93-110.386-155.586-190.992-2.789-8.739-2.019-18.226 2.143-26.401s11.381-14.378 20.089-17.264c8.708-2.885 18.203-2.219 26.423 1.854 8.22 4.072 14.502 11.222 17.483 19.898 21.626 64.956 66.634 119.55 126.273 153.168 59.64 33.618 129.649 43.859 196.418 28.731 66.77-15.128 125.529-54.544 164.854-110.584 39.325-56.041 56.407-124.702 47.924-192.637-8.482-67.934-41.922-130.287-93.82-174.937-51.898-44.651-118.544-68.408-186.984-66.654-68.439 1.755-133.781 28.895-183.323 76.146s-79.743 111.235-84.734 179.515c-.946 9.003-5.358 17.284-12.303 23.09-6.946 5.806-15.878 8.681-24.906 8.016-9.028-.666-17.442-4.819-23.461-11.58-6.019-6.762-9.17-15.601-8.785-24.645 3.727-52.148 19.317-102.754 45.581-147.959 46.016-79.447 121.663-137.401 210.349-161.152 88.687-23.7509 183.172-11.3599 262.736 34.4557 43.664 25.0643 81.28 59.4293 110.179 100.6563 38.434 54.676 60.235 119.301 62.775 186.085 2.54 66.785-14.29 132.879-48.46 190.316-34.171 57.437-84.224 103.765-144.127 133.401-59.902 29.636-127.098 41.315-193.488 33.628-46.981-5.393-92.344-20.425-133.25-44.155z" fill-opacity=".8"/><path d="m66.9552 377.037c-4.9312-2.853-8.958-7.039-11.6182-12.077-2.6601-5.038-3.8456-10.724-3.4206-16.405 5.9613-80.656 30.1587-158.904 70.7676-228.846 4.017-6.958 10.634-12.035 18.395-14.115 7.761-2.079 16.03-.99 22.988 3.027s12.035 10.634 14.115 18.395c2.079 7.761.99 16.03-3.027 22.988-36.05 62.051-57.546 131.477-62.867 203.043-.382 5.11-2.054 10.039-4.859 14.326-2.805 4.288-6.652 7.794-11.181 10.19-4.5288 2.397-9.5914 3.606-14.7143 3.514-5.123-.092-10.1388-1.483-14.5785-4.04z" fill-opacity=".8"/><g fill-opacity=".5"><path d="m256.725 654.718c-1.172-.691-2.204-1.595-3.044-2.666-52.347-66.982-83.487-148.077-89.424-232.881-5.937-84.803 13.599-169.446 56.102-243.069 1.406-2.435 3.722-4.212 6.438-4.94 2.717-.728 5.611-.347 8.046 1.059s4.213 3.722 4.94 6.438c.728 2.717.347 5.611-1.059 8.046-45.45 78.081-63.211 169.218-50.406 258.651 9.82 70.67 38.107 137.498 82.007 193.742 1.526 1.939 2.329 4.349 2.269 6.816-.059 2.466-.977 4.835-2.595 6.697-1.619 1.863-3.836 3.103-6.27 3.507-2.434.403-4.932-.054-7.065-1.295z"/><path d="m530.276 822.063c-4.532-2.605-8.027-6.694-9.896-11.576s-1.997-10.259-.363-15.225c1.634-4.965 4.931-9.215 9.334-12.034 4.403-2.818 9.643-4.032 14.836-3.436 75.342 8.718 151.598-4.539 219.577-38.173s124.78-86.21 163.559-151.392c38.779-65.181 57.88-140.186 55.001-215.976-2.88-75.79-27.616-149.131-71.228-211.182-3.467-4.929-4.835-11.034-3.801-16.971 1.033-5.938 4.383-11.221 9.312-14.689 4.929-3.467 11.034-4.835 16.971-3.801 5.937 1.033 11.221 4.383 14.689 9.312 48.651 69.221 76.243 151.034 79.463 235.581 3.21 84.547-18.09 168.22-61.352 240.934-43.257 72.714-106.619 131.367-182.451 168.89s-160.898 52.316-244.946 42.595c-3.066-.35-6.028-1.322-8.705-2.857z"/><path d="m134.74 159.901c-6.611-3.816-11.434-10.102-13.41-17.475-1.975-7.373-.941-15.228 2.876-21.838 53.862-93.729 134.878-168.923 232.356-215.6586 3.412-1.6337 7.113-2.5793 10.891-2.7828 3.778-.2034 7.559.3392 11.127 1.5969s6.853 3.2059 9.668 5.7333c2.816 2.5274 5.105 5.5846 6.739 8.9969 1.634 3.4124 2.579 7.1131 2.783 10.8909.203 3.7778-.339 7.5587-1.597 11.1267-1.258 3.5681-3.206 6.8535-5.733 9.6687-2.528 2.8152-5.585 5.105-8.997 6.7387-87.003 41.7076-159.314 108.8162-207.39 192.4683-1.889 3.273-4.405 6.142-7.404 8.443-2.998 2.301-6.42 3.988-10.071 4.966-3.65.979-7.458 1.228-11.205.735s-7.36-1.72-10.633-3.61z"/><path d="m330.69 69.5846c-1.382-.7868-2.592-1.8424-3.56-3.1046-.968-1.2637-1.678-2.7057-2.088-4.2438-.411-1.538-.514-3.1419-.305-4.72s.728-3.0994 1.525-4.4771c.798-1.3777 1.859-2.5848 3.123-3.5522 67.169-51.40085 148.06-81.7498 232.463-87.2156 84.402-5.4659 168.532 14.1964 241.77 56.5047 2.783 1.6069 4.814 4.2536 5.645 7.3579.832 3.1044.397 6.412-1.21 9.1952-1.607 2.7833-4.254 4.8142-7.358 5.646s-6.412.3963-9.195-1.2106c-69.094-39.900301-148.457-58.4422-228.077-53.2863-79.62 5.15589-155.929 33.7786-219.3 82.2568-1.904 1.4537-4.197 2.3103-6.588 2.4615s-4.773-.4097-6.845-1.6119z"/><path d="m1063.07 274.35c-6.78-3.922-11.78-10.317-13.94-17.843-34.17-118.819-113.151-219.7209-220.292-281.4136-6.958-4.0173-12.035-10.6341-14.115-18.3949-2.079-7.7608-.991-16.0298 3.027-22.988 4.017-6.9581 10.634-12.0354 18.395-14.1149 7.76-2.0795 16.029-.9909 22.988 3.0264 120.706 69.53151 209.697 183.218 248.207 317.089 1.68 5.807 1.59 11.984-.27 17.737s-5.4 10.817-10.16 14.543c-4.76 3.725-10.53 5.94-16.56 6.361-6.03.42-12.05-.973-17.28-4.002z"/><path d="m416.487 689.308c-8.002-4.62-13.841-12.229-16.232-21.154-2.392-8.925-1.14-18.434 3.48-26.436s12.229-13.841 21.154-16.232c8.925-2.392 18.434-1.14 26.436 3.48 31.462 18.192 66.203 30.004 102.233 34.758 36.031 4.755 72.646 2.359 107.75-7.049 35.105-9.408 68.01-25.645 96.834-47.781s53.001-49.738 71.148-81.226c26.276-45.758 38.976-98.054 36.614-150.767-2.362-52.714-19.688-103.664-49.95-146.89-27.551-39.086-64.748-70.377-107.975-90.829-43.226-20.451-91.01-29.366-138.703-25.879-61.028 4.625-118.837 29.21-164.503 69.959-3.388 3.15-7.37 5.594-11.713 7.188-4.342 1.594-8.959 2.308-13.581 2.099-4.621-.209-9.155-1.336-13.336-3.316s-7.926-4.773-11.016-8.215c-3.09-3.443-5.464-7.467-6.982-11.837-1.519-4.369-2.152-8.998-1.862-13.615.289-4.617 1.495-9.13 3.548-13.276 2.052-4.146 4.91-7.842 8.406-10.872 57.121-51.0141 129.461-81.7848 205.829-87.552 54.074-4.0188 108.337 4.7122 158.421 25.4905 50.084 20.7784 94.592 53.0235 129.94 94.1415 35.349 41.117 60.552 89.959 73.581 142.593 13.029 52.635 13.52 107.594 1.434 160.453s-36.412 102.143-71.02 143.886c-34.609 41.743-78.532 74.778-128.237 96.449-49.706 21.67-103.803 31.369-157.941 28.318-54.137-3.052-106.803-18.77-153.757-45.889z"/></g><path d="m172.519 455.999c-1.389-.804-2.578-1.913-3.476-3.244-.898-1.33-1.483-2.848-1.709-4.437-13.471-94.119 5.222-190.029 53.052-272.2 1.406-2.436 3.722-4.213 6.438-4.941 2.716-.727 5.61-.346 8.046 1.06 2.435 1.406 4.212 3.722 4.94 6.438s.347 5.61-1.059 8.046c-45.451 78.08-63.212 169.217-50.406 258.651.285 1.969.008 3.979-.798 5.798s-2.109 3.374-3.759 4.485c-1.651 1.112-3.581 1.736-5.57 1.799-1.988.063-3.955-.436-5.673-1.44z" fill-opacity=".8"/><path d="m984.914 322.768c-2.761-1.592-5.156-3.746-7.031-6.323-1.874-2.577-3.187-5.519-3.852-8.635-10.943-52.031-32.359-101.292-62.945-144.783-1.717-2.44-2.937-5.195-3.589-8.107s-.725-5.924-.213-8.864 1.598-5.75 3.195-8.27c1.598-2.52 3.677-4.701 6.117-6.418 2.441-1.717 5.196-2.937 8.108-3.589s5.924-.724 8.863-.213c2.94.512 5.751 1.598 8.271 3.195 2.52 1.598 4.701 3.677 6.418 6.117 34.15 48.524 58.064 103.49 70.294 161.552.93 4.302.58 8.78-1 12.888-1.58 4.107-4.32 7.667-7.88 10.246-3.57 2.579-7.81 4.067-12.2 4.28-4.395.214-8.758-.855-12.556-3.076z" fill-opacity=".8"/><path d="m544.243-14.138c-2.232-1.2796-3.999-3.2364-5.045-5.5871-1.045-2.3507-1.316-4.9732-.772-7.4878s1.874-4.7908 3.798-6.4991c1.924-1.7082 4.342-2.7598 6.903-3.0024 88.547-8.5929 177.559 10.8156 254.491 55.4905 2.784 1.6069 4.815 4.2536 5.646 7.3579.832 3.1044.397 6.412-1.21 9.1952-1.607 2.7833-4.254 4.8142-7.358 5.646-3.105.8318-6.412.3963-9.195-1.2106-72.55-42.10722-156.481-60.394-239.972-52.2845-2.538.2407-5.088-.3256-7.286-1.6181z" fill-opacity=".8"/><path d="m489.076 575.273c-35.757-20.644-64.589-51.428-82.85-88.459-18.262-37.03-25.132-78.645-19.743-119.58s22.796-79.353 50.019-110.395c27.224-31.043 63.041-53.315 102.923-64.002 39.881-10.686 82.036-9.306 121.134 3.966 39.097 13.272 73.381 37.839 98.516 70.595 25.135 32.757 39.992 72.231 42.692 113.431s-6.877 82.276-27.521 118.033c-27.735 47.893-73.331 82.833-126.789 97.157s-110.415 6.863-158.381-20.746zm196.641-340.592c-31.606-18.248-67.913-26.713-104.33-24.326s-71.309 15.519-100.262 37.736c-28.954 22.217-50.669 52.52-62.4 87.079-11.731 34.558-12.951 71.819-3.505 107.071 9.445 35.251 29.132 66.91 56.571 90.973 27.438 24.063 61.396 39.449 97.579 44.213s72.966-1.309 105.698-17.451c32.731-16.141 59.941-41.626 78.189-73.232 24.396-42.399 30.986-92.741 18.325-139.99-12.66-47.25-43.538-87.552-85.865-112.073z" fill-opacity=".8"/><path d="m548.526 110.104c-6.741-3.879-12.06-9.817-15.177-16.9422-3.116-7.1252-3.865-15.0621-2.138-22.6446 1.728-7.5826 5.842-14.4113 11.738-19.4829s13.262-8.1188 21.018-8.6941c59.983-4.409 120.085 6.7942 174.452 32.5181 54.366 25.7237 101.142 65.0917 135.771 114.2667 2.872 3.9 4.935 8.334 6.069 13.042s1.316 9.595.536 14.374c-.781 4.78-2.509 9.355-5.082 13.457s-5.94 7.649-9.903 10.433c-3.963 2.783-8.442 4.746-13.175 5.774-4.732 1.028-9.622 1.101-14.382.213-4.761-.888-9.296-2.718-13.34-5.383-4.043-2.664-7.514-6.11-10.207-10.135-27.408-38.864-64.404-69.978-107.393-90.317-42.988-20.339-90.507-29.211-137.938-25.754-7.267.55-14.53-1.096-20.849-4.725z" fill-opacity=".6"/><path d="m990.523 122.803c-3.804-2.202-7.083-5.206-9.61-8.802-39.908-56.8806-91.823-104.30056-152.075-138.9077-6.958-4.0172-12.035-10.6341-14.115-18.3949-2.079-7.7608-.991-16.0298 3.026-22.9879 4.018-6.9582 10.635-12.0355 18.395-14.115 7.761-2.0795 16.03-.9908 22.988 3.0264 67.93 38.9992 126.453 92.4568 171.428 156.5869 3.97 5.6472 5.89 12.48 5.44 19.3676-.44 6.8876-3.22 13.4166-7.88 18.5076-4.67 5.09-10.92 8.436-17.75 9.485-6.82 1.048-13.794-.265-19.768-3.721z" fill-opacity=".6"/></g></svg>